<svg width="24" height="24" fill="none" xmlns="http://www.w3.org/2000/svg"><g clip-path="url(#clip0_2151_25340)"><path d="M24 12c0 6.63-5.37 12-12 12S0 18.63 0 12 5.37 0 12 0s12 5.37 12 12z" fill="url(#paint0_linear_2151_25340)"/><path d="M9.8 17.5c-.39 0-.32-.15-.46-.52L8.2 13.22l7.08-4.42.83.22-.69 1.88-5.62 6.6z" fill="#C8DAEA"/><path d="M9.8 17.5c.3 0 .43-.14.6-.3.26-.25 3.6-3.5 3.6-3.5l-2.05-.5-1.9 1.2-.25 3v.1z" fill="#A9C9DD"/><path d="M10 14.44l4.84 3.57c.55.3.95.15 1.09-.51l1.97-9.28c.2-.81-.31-1.17-.84-.93L5.5 11.75c-.79.32-.78.76-.14.95l2.97.93L15.2 9.3c.32-.2.62-.09.38.13L10 14.44z" fill="url(#paint1_linear_2151_25340)"/></g><defs><linearGradient id="paint0_linear_2151_25340" x1="15.517" y1="3.793" x2="9.517" y2="17.793" gradientUnits="userSpaceOnUse"><stop stop-color="#37AEE2"/><stop offset="1" stop-color="#1E96C8"/></linearGradient><linearGradient id="paint1_linear_2151_25340" x1="12.899" y1="12.376" x2="15.399" y2="16.375" gradientUnits="userSpaceOnUse"><stop stop-color="#EFF7FC"/><stop offset="1" stop-color="#fff"/></linearGradient><clipPath id="clip0_2151_25340"><path fill="#fff" d="M0 0h24v24H0z"/></clipPath></defs></svg>